M48
; DRILL file {KiCad 8.0.5-8.0.5-0~ubuntu20.04.1} date 2024-11-22T10:43:45+0100
; FORMAT={-:-/ absolute / inch / decimal}
; #@! TF.CreationDate,2024-11-22T10:43:45+01:00
; #@! TF.GenerationSoftware,Kicad,Pcbnew,8.0.5-8.0.5-0~ubuntu20.04.1
; #@! TF.FileFunction,Plated,1,2,PTH
FMAT,2
INCH
; #@! TA.AperFunction,Plated,PTH,ViaDrill
T1C0.0118
; #@! TA.AperFunction,Plated,PTH,ComponentDrill
T2C0.0300
; #@! TA.AperFunction,Plated,PTH,ComponentDrill
T3C0.0315
; #@! TA.AperFunction,Plated,PTH,ViaDrill
T4C0.0394
; #@! TA.AperFunction,Plated,PTH,ComponentDrill
T5C0.0394
; #@! TA.AperFunction,Plated,PTH,ComponentDrill
T6C0.0433
; #@! TA.AperFunction,Plated,PTH,ComponentDrill
T7C0.0472
; #@! TA.AperFunction,Plated,PTH,ComponentDrill
T8C0.0512
; #@! TA.AperFunction,Plated,PTH,ComponentDrill
T9C0.0669
; #@! TA.AperFunction,Plated,PTH,ComponentDrill
T10C0.0866
%
G90
G05
T1
X5.15Y-2.55
X5.15Y-2.65
X5.15Y-2.75
X5.15Y-2.85
X5.15Y-2.95
X5.15Y-3.05
X5.225Y-4.325
X5.25Y-2.55
X5.25Y-2.65
X5.25Y-2.75
X5.25Y-2.85
X5.25Y-2.95
X5.25Y-3.05
X5.35Y-2.55
X5.35Y-2.65
X5.35Y-2.75
X5.35Y-2.85
X5.35Y-2.95
X5.35Y-3.05
X5.4Y-2.25
X5.4Y-2.8
X5.4Y-2.8
X5.45Y-2.55
X5.45Y-2.65
X5.45Y-2.75
X5.45Y-2.85
X5.45Y-2.95
X5.45Y-3.05
X5.55Y-2.55
X5.55Y-2.65
X5.55Y-2.75
X5.55Y-2.85
X5.55Y-2.95
X5.55Y-3.05
X5.65Y-2.55
X5.65Y-2.65
X5.65Y-2.75
X5.65Y-2.85
X5.65Y-2.95
X5.65Y-3.05
X5.7Y-3.15
X5.725Y-3.425
X5.75Y-2.95
X5.75Y-3.5
X5.8Y-2.4
X5.8Y-2.8
X5.9Y-2.4
X5.95Y-2.55
X6.0Y-2.4
X6.1366Y-3.9264
X6.1406Y-4.1508
X6.65Y-3.9
X6.8Y-3.9
X6.85Y-3.95
T2
X6.0833Y-4.7344
X6.1833Y-4.7344
X6.2833Y-4.7344
X6.3833Y-4.7344
T3
X4.45Y-4.15
X4.6Y-4.4
X4.6Y-4.5969
X4.75Y-2.85
X4.75Y-3.0469
X4.75Y-3.7
X4.75Y-4.0
X4.75Y-4.15
X4.75Y-4.3
X4.75Y-4.6
X4.8266Y-3.45
X4.9Y-3.8
X4.9Y-3.9
X4.9Y-4.0
X4.9Y-4.1
X4.9Y-4.2
X4.9Y-4.3
X4.9Y-4.4
X4.9Y-4.5
X4.9Y-4.6
X4.9Y-4.7
X4.9Y-4.8
X4.9Y-4.9
X4.9Y-5.0
X4.9Y-5.1
X4.9Y-5.2
X4.9Y-5.3
X4.9Y-5.4
X4.9Y-5.5
X4.9Y-5.6
X4.925Y-3.45
X5.8999Y-5.4999
X5.8999Y-5.5999
X5.9Y-3.8
X5.9Y-3.9
X5.9Y-4.0
X5.9Y-4.1
X5.9Y-4.2
X5.9Y-4.3
X5.9Y-4.4
X5.9Y-4.5
X5.9Y-4.6
X5.9Y-4.7
X5.9Y-4.8
X5.9Y-4.9
X5.9Y-5.0
X5.9Y-5.1
X5.9Y-5.2
X5.9Y-5.3
X5.9Y-5.4
X6.125Y-5.55
X6.125Y-5.675
X6.4Y-3.8
X6.4Y-3.9
X6.4Y-4.075
X6.4Y-4.2
X6.425Y-5.55
X6.425Y-5.675
X6.5Y-3.4
X6.5Y-3.4984
X6.5Y-3.8
X6.5Y-3.9
X6.55Y-5.65
X6.575Y-4.7516
X6.575Y-4.85
X6.7Y-2.9
X6.7Y-3.0969
X6.7Y-3.2531
X6.7Y-3.45
X6.7Y-4.075
X6.7Y-4.2
X6.7469Y-5.65
T4
X5.4Y-2.8
T5
X4.4496Y-5.2
X4.45Y-4.45
X4.45Y-4.55
X4.5496Y-5.2
X4.55Y-3.45
X4.55Y-3.55
X4.55Y-3.65
X4.575Y-4.725
X4.6496Y-5.2
X4.675Y-4.725
X4.7496Y-5.2
X4.9Y-2.75
X4.9Y-2.85
X4.9Y-2.95
X4.9Y-3.05
X5.4Y-5.3528
X5.5Y-5.3528
X6.075Y-5.125
X6.1Y-3.4
X6.1Y-3.5
X6.175Y-5.125
X6.275Y-5.125
X6.375Y-5.125
X6.4Y-3.6472
X6.5Y-3.6472
X6.6Y-3.6472
X6.7Y-3.6472
X6.95Y-2.9
X6.95Y-3.0
X6.95Y-3.1
X6.95Y-3.2
X6.95Y-3.3
X6.976Y-3.9504
X6.976Y-4.0504
X6.976Y-4.1504
X6.976Y-4.2504
T6
X4.45Y-4.875
X4.45Y-5.0522
X4.7059Y-4.875
X4.7059Y-5.0522
X6.4Y-4.575
X6.55Y-5.025
X6.55Y-5.125
X6.55Y-5.3
X6.55Y-5.5
X6.7Y-4.575
T7
X6.7882Y-4.775
X6.9882Y-4.775
T8
X5.4Y-2.025
X6.3Y-4.375
X6.775Y-5.1
X6.8Y-4.375
X6.975Y-5.1
T9
X5.3Y-1.925
X5.3Y-2.125
X5.5Y-1.925
X5.5Y-2.125
T10
X4.55Y-2.4972
X4.55Y-5.45
X6.9122Y-2.4972
X6.9122Y-5.45
M30
