%TF.GenerationSoftware,KiCad,Pcbnew,8.0.5*%
%TF.CreationDate,2024-11-28T23:08:01+01:00*%
%TF.ProjectId,esp32-e22,65737033-322d-4653-9232-2e6b69636164,V 2.1.2*%
%TF.SameCoordinates,Original*%
%TF.FileFunction,Legend,Bot*%
%TF.FilePolarity,Positive*%
%FSLAX46Y46*%
G04 Gerber Fmt 4.6, Leading zero omitted, Abs format (unit mm)*
G04 Created by KiCad (PCBNEW 8.0.5) date 2024-11-28 23:08:01*
%MOMM*%
%LPD*%
G01*
G04 APERTURE LIST*
%ADD10C,0.150000*%
%ADD11C,0.120000*%
G04 APERTURE END LIST*
D10*
X175998094Y-111579819D02*
X175998094Y-110579819D01*
X175998094Y-110579819D02*
X175759999Y-110579819D01*
X175759999Y-110579819D02*
X175617142Y-110627438D01*
X175617142Y-110627438D02*
X175521904Y-110722676D01*
X175521904Y-110722676D02*
X175474285Y-110817914D01*
X175474285Y-110817914D02*
X175426666Y-111008390D01*
X175426666Y-111008390D02*
X175426666Y-111151247D01*
X175426666Y-111151247D02*
X175474285Y-111341723D01*
X175474285Y-111341723D02*
X175521904Y-111436961D01*
X175521904Y-111436961D02*
X175617142Y-111532200D01*
X175617142Y-111532200D02*
X175759999Y-111579819D01*
X175759999Y-111579819D02*
X175998094Y-111579819D01*
X174569523Y-110913152D02*
X174569523Y-111579819D01*
X174807618Y-110532200D02*
X175045713Y-111246485D01*
X175045713Y-111246485D02*
X174426666Y-111246485D01*
X172981904Y-109279819D02*
X172981904Y-108279819D01*
X172410476Y-109279819D02*
X172839047Y-108708390D01*
X172410476Y-108279819D02*
X172981904Y-108851247D01*
X158876904Y-122009819D02*
X158876904Y-122819342D01*
X158876904Y-122819342D02*
X158829285Y-122914580D01*
X158829285Y-122914580D02*
X158781666Y-122962200D01*
X158781666Y-122962200D02*
X158686428Y-123009819D01*
X158686428Y-123009819D02*
X158495952Y-123009819D01*
X158495952Y-123009819D02*
X158400714Y-122962200D01*
X158400714Y-122962200D02*
X158353095Y-122914580D01*
X158353095Y-122914580D02*
X158305476Y-122819342D01*
X158305476Y-122819342D02*
X158305476Y-122009819D01*
X157400714Y-122343152D02*
X157400714Y-123009819D01*
X157638809Y-121962200D02*
X157876904Y-122676485D01*
X157876904Y-122676485D02*
X157257857Y-122676485D01*
X160853333Y-97274819D02*
X160853333Y-97989104D01*
X160853333Y-97989104D02*
X160900952Y-98131961D01*
X160900952Y-98131961D02*
X160996190Y-98227200D01*
X160996190Y-98227200D02*
X161139047Y-98274819D01*
X161139047Y-98274819D02*
X161234285Y-98274819D01*
X160377142Y-98274819D02*
X160377142Y-97274819D01*
X160377142Y-97274819D02*
X159996190Y-97274819D01*
X159996190Y-97274819D02*
X159900952Y-97322438D01*
X159900952Y-97322438D02*
X159853333Y-97370057D01*
X159853333Y-97370057D02*
X159805714Y-97465295D01*
X159805714Y-97465295D02*
X159805714Y-97608152D01*
X159805714Y-97608152D02*
X159853333Y-97703390D01*
X159853333Y-97703390D02*
X159900952Y-97751009D01*
X159900952Y-97751009D02*
X159996190Y-97798628D01*
X159996190Y-97798628D02*
X160377142Y-97798628D01*
X158853333Y-98274819D02*
X159424761Y-98274819D01*
X159139047Y-98274819D02*
X159139047Y-97274819D01*
X159139047Y-97274819D02*
X159234285Y-97417676D01*
X159234285Y-97417676D02*
X159329523Y-97512914D01*
X159329523Y-97512914D02*
X159424761Y-97560533D01*
X153836666Y-141424819D02*
X154169999Y-140948628D01*
X154408094Y-141424819D02*
X154408094Y-140424819D01*
X154408094Y-140424819D02*
X154027142Y-140424819D01*
X154027142Y-140424819D02*
X153931904Y-140472438D01*
X153931904Y-140472438D02*
X153884285Y-140520057D01*
X153884285Y-140520057D02*
X153836666Y-140615295D01*
X153836666Y-140615295D02*
X153836666Y-140758152D01*
X153836666Y-140758152D02*
X153884285Y-140853390D01*
X153884285Y-140853390D02*
X153931904Y-140901009D01*
X153931904Y-140901009D02*
X154027142Y-140948628D01*
X154027142Y-140948628D02*
X154408094Y-140948628D01*
X152979523Y-140758152D02*
X152979523Y-141424819D01*
X153217618Y-140377200D02*
X153455713Y-141091485D01*
X153455713Y-141091485D02*
X152836666Y-141091485D01*
X135964819Y-56983333D02*
X135488628Y-56650000D01*
X135964819Y-56411905D02*
X134964819Y-56411905D01*
X134964819Y-56411905D02*
X134964819Y-56792857D01*
X134964819Y-56792857D02*
X135012438Y-56888095D01*
X135012438Y-56888095D02*
X135060057Y-56935714D01*
X135060057Y-56935714D02*
X135155295Y-56983333D01*
X135155295Y-56983333D02*
X135298152Y-56983333D01*
X135298152Y-56983333D02*
X135393390Y-56935714D01*
X135393390Y-56935714D02*
X135441009Y-56888095D01*
X135441009Y-56888095D02*
X135488628Y-56792857D01*
X135488628Y-56792857D02*
X135488628Y-56411905D01*
X135393390Y-57554762D02*
X135345771Y-57459524D01*
X135345771Y-57459524D02*
X135298152Y-57411905D01*
X135298152Y-57411905D02*
X135202914Y-57364286D01*
X135202914Y-57364286D02*
X135155295Y-57364286D01*
X135155295Y-57364286D02*
X135060057Y-57411905D01*
X135060057Y-57411905D02*
X135012438Y-57459524D01*
X135012438Y-57459524D02*
X134964819Y-57554762D01*
X134964819Y-57554762D02*
X134964819Y-57745238D01*
X134964819Y-57745238D02*
X135012438Y-57840476D01*
X135012438Y-57840476D02*
X135060057Y-57888095D01*
X135060057Y-57888095D02*
X135155295Y-57935714D01*
X135155295Y-57935714D02*
X135202914Y-57935714D01*
X135202914Y-57935714D02*
X135298152Y-57888095D01*
X135298152Y-57888095D02*
X135345771Y-57840476D01*
X135345771Y-57840476D02*
X135393390Y-57745238D01*
X135393390Y-57745238D02*
X135393390Y-57554762D01*
X135393390Y-57554762D02*
X135441009Y-57459524D01*
X135441009Y-57459524D02*
X135488628Y-57411905D01*
X135488628Y-57411905D02*
X135583866Y-57364286D01*
X135583866Y-57364286D02*
X135774342Y-57364286D01*
X135774342Y-57364286D02*
X135869580Y-57411905D01*
X135869580Y-57411905D02*
X135917200Y-57459524D01*
X135917200Y-57459524D02*
X135964819Y-57554762D01*
X135964819Y-57554762D02*
X135964819Y-57745238D01*
X135964819Y-57745238D02*
X135917200Y-57840476D01*
X135917200Y-57840476D02*
X135869580Y-57888095D01*
X135869580Y-57888095D02*
X135774342Y-57935714D01*
X135774342Y-57935714D02*
X135583866Y-57935714D01*
X135583866Y-57935714D02*
X135488628Y-57888095D01*
X135488628Y-57888095D02*
X135441009Y-57840476D01*
X135441009Y-57840476D02*
X135393390Y-57745238D01*
X134344819Y-139535476D02*
X135059104Y-139535476D01*
X135059104Y-139535476D02*
X135201961Y-139487857D01*
X135201961Y-139487857D02*
X135297200Y-139392619D01*
X135297200Y-139392619D02*
X135344819Y-139249762D01*
X135344819Y-139249762D02*
X135344819Y-139154524D01*
X135344819Y-140535476D02*
X135344819Y-139964048D01*
X135344819Y-140249762D02*
X134344819Y-140249762D01*
X134344819Y-140249762D02*
X134487676Y-140154524D01*
X134487676Y-140154524D02*
X134582914Y-140059286D01*
X134582914Y-140059286D02*
X134630533Y-139964048D01*
X134440057Y-140916429D02*
X134392438Y-140964048D01*
X134392438Y-140964048D02*
X134344819Y-141059286D01*
X134344819Y-141059286D02*
X134344819Y-141297381D01*
X134344819Y-141297381D02*
X134392438Y-141392619D01*
X134392438Y-141392619D02*
X134440057Y-141440238D01*
X134440057Y-141440238D02*
X134535295Y-141487857D01*
X134535295Y-141487857D02*
X134630533Y-141487857D01*
X134630533Y-141487857D02*
X134773390Y-141440238D01*
X134773390Y-141440238D02*
X135344819Y-140868810D01*
X135344819Y-140868810D02*
X135344819Y-141487857D01*
X172886666Y-103959819D02*
X173219999Y-103483628D01*
X173458094Y-103959819D02*
X173458094Y-102959819D01*
X173458094Y-102959819D02*
X173077142Y-102959819D01*
X173077142Y-102959819D02*
X172981904Y-103007438D01*
X172981904Y-103007438D02*
X172934285Y-103055057D01*
X172934285Y-103055057D02*
X172886666Y-103150295D01*
X172886666Y-103150295D02*
X172886666Y-103293152D01*
X172886666Y-103293152D02*
X172934285Y-103388390D01*
X172934285Y-103388390D02*
X172981904Y-103436009D01*
X172981904Y-103436009D02*
X173077142Y-103483628D01*
X173077142Y-103483628D02*
X173458094Y-103483628D01*
X172553332Y-102959819D02*
X171886666Y-102959819D01*
X171886666Y-102959819D02*
X172315237Y-103959819D01*
X173458094Y-116659819D02*
X173458094Y-115659819D01*
X173458094Y-115659819D02*
X173219999Y-115659819D01*
X173219999Y-115659819D02*
X173077142Y-115707438D01*
X173077142Y-115707438D02*
X172981904Y-115802676D01*
X172981904Y-115802676D02*
X172934285Y-115897914D01*
X172934285Y-115897914D02*
X172886666Y-116088390D01*
X172886666Y-116088390D02*
X172886666Y-116231247D01*
X172886666Y-116231247D02*
X172934285Y-116421723D01*
X172934285Y-116421723D02*
X172981904Y-116516961D01*
X172981904Y-116516961D02*
X173077142Y-116612200D01*
X173077142Y-116612200D02*
X173219999Y-116659819D01*
X173219999Y-116659819D02*
X173458094Y-116659819D01*
X172505713Y-115755057D02*
X172458094Y-115707438D01*
X172458094Y-115707438D02*
X172362856Y-115659819D01*
X172362856Y-115659819D02*
X172124761Y-115659819D01*
X172124761Y-115659819D02*
X172029523Y-115707438D01*
X172029523Y-115707438D02*
X171981904Y-115755057D01*
X171981904Y-115755057D02*
X171934285Y-115850295D01*
X171934285Y-115850295D02*
X171934285Y-115945533D01*
X171934285Y-115945533D02*
X171981904Y-116088390D01*
X171981904Y-116088390D02*
X172553332Y-116659819D01*
X172553332Y-116659819D02*
X171934285Y-116659819D01*
X170441904Y-114559819D02*
X170441904Y-113559819D01*
X169870476Y-114559819D02*
X170299047Y-113988390D01*
X169870476Y-113559819D02*
X170441904Y-114131247D01*
X168473333Y-97214819D02*
X168473333Y-97929104D01*
X168473333Y-97929104D02*
X168520952Y-98071961D01*
X168520952Y-98071961D02*
X168616190Y-98167200D01*
X168616190Y-98167200D02*
X168759047Y-98214819D01*
X168759047Y-98214819D02*
X168854285Y-98214819D01*
X167997142Y-98214819D02*
X167997142Y-97214819D01*
X167997142Y-97214819D02*
X167616190Y-97214819D01*
X167616190Y-97214819D02*
X167520952Y-97262438D01*
X167520952Y-97262438D02*
X167473333Y-97310057D01*
X167473333Y-97310057D02*
X167425714Y-97405295D01*
X167425714Y-97405295D02*
X167425714Y-97548152D01*
X167425714Y-97548152D02*
X167473333Y-97643390D01*
X167473333Y-97643390D02*
X167520952Y-97691009D01*
X167520952Y-97691009D02*
X167616190Y-97738628D01*
X167616190Y-97738628D02*
X167997142Y-97738628D01*
X167044761Y-97310057D02*
X166997142Y-97262438D01*
X166997142Y-97262438D02*
X166901904Y-97214819D01*
X166901904Y-97214819D02*
X166663809Y-97214819D01*
X166663809Y-97214819D02*
X166568571Y-97262438D01*
X166568571Y-97262438D02*
X166520952Y-97310057D01*
X166520952Y-97310057D02*
X166473333Y-97405295D01*
X166473333Y-97405295D02*
X166473333Y-97500533D01*
X166473333Y-97500533D02*
X166520952Y-97643390D01*
X166520952Y-97643390D02*
X167092380Y-98214819D01*
X167092380Y-98214819D02*
X166473333Y-98214819D01*
X177999523Y-97024819D02*
X177999523Y-97739104D01*
X177999523Y-97739104D02*
X178047142Y-97881961D01*
X178047142Y-97881961D02*
X178142380Y-97977200D01*
X178142380Y-97977200D02*
X178285237Y-98024819D01*
X178285237Y-98024819D02*
X178380475Y-98024819D01*
X176999523Y-98024819D02*
X177570951Y-98024819D01*
X177285237Y-98024819D02*
X177285237Y-97024819D01*
X177285237Y-97024819D02*
X177380475Y-97167676D01*
X177380475Y-97167676D02*
X177475713Y-97262914D01*
X177475713Y-97262914D02*
X177570951Y-97310533D01*
X176047142Y-98024819D02*
X176618570Y-98024819D01*
X176332856Y-98024819D02*
X176332856Y-97024819D01*
X176332856Y-97024819D02*
X176428094Y-97167676D01*
X176428094Y-97167676D02*
X176523332Y-97262914D01*
X176523332Y-97262914D02*
X176618570Y-97310533D01*
X172886666Y-106499819D02*
X173219999Y-106023628D01*
X173458094Y-106499819D02*
X173458094Y-105499819D01*
X173458094Y-105499819D02*
X173077142Y-105499819D01*
X173077142Y-105499819D02*
X172981904Y-105547438D01*
X172981904Y-105547438D02*
X172934285Y-105595057D01*
X172934285Y-105595057D02*
X172886666Y-105690295D01*
X172886666Y-105690295D02*
X172886666Y-105833152D01*
X172886666Y-105833152D02*
X172934285Y-105928390D01*
X172934285Y-105928390D02*
X172981904Y-105976009D01*
X172981904Y-105976009D02*
X173077142Y-106023628D01*
X173077142Y-106023628D02*
X173458094Y-106023628D01*
X172029523Y-105499819D02*
X172219999Y-105499819D01*
X172219999Y-105499819D02*
X172315237Y-105547438D01*
X172315237Y-105547438D02*
X172362856Y-105595057D01*
X172362856Y-105595057D02*
X172458094Y-105737914D01*
X172458094Y-105737914D02*
X172505713Y-105928390D01*
X172505713Y-105928390D02*
X172505713Y-106309342D01*
X172505713Y-106309342D02*
X172458094Y-106404580D01*
X172458094Y-106404580D02*
X172410475Y-106452200D01*
X172410475Y-106452200D02*
X172315237Y-106499819D01*
X172315237Y-106499819D02*
X172124761Y-106499819D01*
X172124761Y-106499819D02*
X172029523Y-106452200D01*
X172029523Y-106452200D02*
X171981904Y-106404580D01*
X171981904Y-106404580D02*
X171934285Y-106309342D01*
X171934285Y-106309342D02*
X171934285Y-106071247D01*
X171934285Y-106071247D02*
X171981904Y-105976009D01*
X171981904Y-105976009D02*
X172029523Y-105928390D01*
X172029523Y-105928390D02*
X172124761Y-105880771D01*
X172124761Y-105880771D02*
X172315237Y-105880771D01*
X172315237Y-105880771D02*
X172410475Y-105928390D01*
X172410475Y-105928390D02*
X172458094Y-105976009D01*
X172458094Y-105976009D02*
X172505713Y-106071247D01*
X153836666Y-144599819D02*
X154169999Y-144123628D01*
X154408094Y-144599819D02*
X154408094Y-143599819D01*
X154408094Y-143599819D02*
X154027142Y-143599819D01*
X154027142Y-143599819D02*
X153931904Y-143647438D01*
X153931904Y-143647438D02*
X153884285Y-143695057D01*
X153884285Y-143695057D02*
X153836666Y-143790295D01*
X153836666Y-143790295D02*
X153836666Y-143933152D01*
X153836666Y-143933152D02*
X153884285Y-144028390D01*
X153884285Y-144028390D02*
X153931904Y-144076009D01*
X153931904Y-144076009D02*
X154027142Y-144123628D01*
X154027142Y-144123628D02*
X154408094Y-144123628D01*
X153503332Y-143599819D02*
X152884285Y-143599819D01*
X152884285Y-143599819D02*
X153217618Y-143980771D01*
X153217618Y-143980771D02*
X153074761Y-143980771D01*
X153074761Y-143980771D02*
X152979523Y-144028390D01*
X152979523Y-144028390D02*
X152931904Y-144076009D01*
X152931904Y-144076009D02*
X152884285Y-144171247D01*
X152884285Y-144171247D02*
X152884285Y-144409342D01*
X152884285Y-144409342D02*
X152931904Y-144504580D01*
X152931904Y-144504580D02*
X152979523Y-144552200D01*
X152979523Y-144552200D02*
X153074761Y-144599819D01*
X153074761Y-144599819D02*
X153360475Y-144599819D01*
X153360475Y-144599819D02*
X153455713Y-144552200D01*
X153455713Y-144552200D02*
X153503332Y-144504580D01*
D11*
%TO.C,D4*%
X161485000Y-108400000D02*
X171255000Y-108400000D01*
X161485000Y-109585000D02*
X161485000Y-108400000D01*
X161485000Y-112665000D02*
X161485000Y-113850000D01*
X161485000Y-113850000D02*
X171255000Y-113850000D01*
X169585500Y-113850000D02*
X169585500Y-108400000D01*
X169705500Y-113850000D02*
X169705500Y-108400000D01*
X169825500Y-113850000D02*
X169825500Y-108400000D01*
X171255000Y-108400000D02*
X171255000Y-109585000D01*
X171255000Y-113850000D02*
X171255000Y-112665000D01*
D10*
%TO.C,JP1*%
X161660000Y-95990000D02*
X162160000Y-95490000D01*
X161660000Y-99590000D02*
X161660000Y-95990000D01*
X162160000Y-95490000D02*
X162960000Y-95490000D01*
X162160000Y-100090000D02*
X161660000Y-99590000D01*
X162960000Y-95490000D02*
X163460000Y-95990000D01*
X162960000Y-100090000D02*
X162160000Y-100090000D01*
X163460000Y-95990000D02*
X163460000Y-99590000D01*
X163460000Y-99590000D02*
X162960000Y-100090000D01*
D11*
%TO.C,R4*%
X156115000Y-139600000D02*
X156115000Y-139930000D01*
X156115000Y-142340000D02*
X156115000Y-142010000D01*
X162655000Y-139600000D02*
X156115000Y-139600000D01*
X162655000Y-139930000D02*
X162655000Y-139600000D01*
X162655000Y-142010000D02*
X162655000Y-142340000D01*
X162655000Y-142340000D02*
X156115000Y-142340000D01*
%TO.C,R8*%
X136425000Y-55599064D02*
X136425000Y-55144936D01*
X137895000Y-55599064D02*
X137895000Y-55144936D01*
%TO.C,J12*%
X135830000Y-137400000D02*
X135830000Y-140060000D01*
X135830000Y-140060000D02*
X141030000Y-140060000D01*
X135890000Y-134690000D02*
X137160000Y-134690000D01*
X135890000Y-135960000D02*
X135890000Y-134690000D01*
X136780000Y-137400000D02*
X136780000Y-137070000D01*
X136780000Y-146060000D02*
X136780000Y-140060000D01*
X136840000Y-146060000D02*
X136840000Y-140060000D01*
X136960000Y-146060000D02*
X136960000Y-140060000D01*
X137080000Y-146060000D02*
X137080000Y-140060000D01*
X137200000Y-146060000D02*
X137200000Y-140060000D01*
X137320000Y-146060000D02*
X137320000Y-140060000D01*
X137440000Y-146060000D02*
X137440000Y-140060000D01*
X137540000Y-137400000D02*
X137540000Y-137070000D01*
X137540000Y-140060000D02*
X137540000Y-146060000D01*
X137540000Y-146060000D02*
X136780000Y-146060000D01*
X138430000Y-140060000D02*
X138430000Y-137400000D01*
X139320000Y-137400000D02*
X139320000Y-137002929D01*
X139320000Y-146060000D02*
X139320000Y-140060000D01*
X140080000Y-137400000D02*
X140080000Y-137002929D01*
X140080000Y-140060000D02*
X140080000Y-146060000D01*
X140080000Y-146060000D02*
X139320000Y-146060000D01*
X141030000Y-137400000D02*
X135830000Y-137400000D01*
X141030000Y-140060000D02*
X141030000Y-137400000D01*
%TO.C,R7*%
X163100000Y-102135000D02*
X163100000Y-102465000D01*
X163100000Y-104875000D02*
X163100000Y-104545000D01*
X169640000Y-102135000D02*
X163100000Y-102135000D01*
X169640000Y-102465000D02*
X169640000Y-102135000D01*
X169640000Y-104545000D02*
X169640000Y-104875000D01*
X169640000Y-104875000D02*
X163100000Y-104875000D01*
%TO.C,D2*%
X163650000Y-114735000D02*
X169090000Y-114735000D01*
X163650000Y-114865000D02*
X163650000Y-114735000D01*
X163650000Y-117545000D02*
X163650000Y-117675000D01*
X163650000Y-117675000D02*
X169090000Y-117675000D01*
X168070000Y-117675000D02*
X168070000Y-114735000D01*
X168190000Y-117675000D02*
X168190000Y-114735000D01*
X168310000Y-117675000D02*
X168310000Y-114735000D01*
X169090000Y-114735000D02*
X169090000Y-114865000D01*
X169090000Y-117675000D02*
X169090000Y-117545000D01*
D10*
%TO.C,JP2*%
X164200000Y-95990000D02*
X164700000Y-95490000D01*
X164200000Y-99590000D02*
X164200000Y-95990000D01*
X164700000Y-95490000D02*
X165500000Y-95490000D01*
X164700000Y-100090000D02*
X164200000Y-99590000D01*
X165500000Y-95490000D02*
X166000000Y-95990000D01*
X165500000Y-100090000D02*
X164700000Y-100090000D01*
X166000000Y-95990000D02*
X166000000Y-99590000D01*
X166000000Y-99590000D02*
X165500000Y-100090000D01*
D11*
%TO.C,J11*%
X175860000Y-99010000D02*
X177190000Y-99010000D01*
X175860000Y-100340000D02*
X175860000Y-99010000D01*
X175860000Y-101610000D02*
X178520000Y-101610000D01*
X175860000Y-109290000D02*
X175860000Y-101610000D01*
X175860000Y-109290000D02*
X178520000Y-109290000D01*
X178520000Y-109290000D02*
X178520000Y-101610000D01*
%TO.C,R6*%
X163100000Y-105310000D02*
X163100000Y-105640000D01*
X163100000Y-108050000D02*
X163100000Y-107720000D01*
X169640000Y-105310000D02*
X163100000Y-105310000D01*
X169640000Y-105640000D02*
X169640000Y-105310000D01*
X169640000Y-107720000D02*
X169640000Y-108050000D01*
X169640000Y-108050000D02*
X163100000Y-108050000D01*
%TO.C,R3*%
X156115000Y-142775000D02*
X156115000Y-143105000D01*
X156115000Y-145515000D02*
X156115000Y-145185000D01*
X162655000Y-142775000D02*
X156115000Y-142775000D01*
X162655000Y-143105000D02*
X162655000Y-142775000D01*
X162655000Y-145185000D02*
X162655000Y-145515000D01*
X162655000Y-145515000D02*
X156115000Y-145515000D01*
%TD*%
M02*
