%TF.GenerationSoftware,KiCad,Pcbnew,8.0.5*%
%TF.CreationDate,2024-11-28T23:08:01+01:00*%
%TF.ProjectId,esp32-e22,65737033-322d-4653-9232-2e6b69636164,V 2.1.2*%
%TF.SameCoordinates,Original*%
%TF.FileFunction,Soldermask,Top*%
%TF.FilePolarity,Negative*%
%FSLAX46Y46*%
G04 Gerber Fmt 4.6, Leading zero omitted, Abs format (unit mm)*
G04 Created by KiCad (PCBNEW 8.0.5) date 2024-11-28 23:08:01*
%MOMM*%
%LPD*%
G01*
G04 APERTURE LIST*
G04 Aperture macros list*
%AMRoundRect*
0 Rectangle with rounded corners*
0 $1 Rounding radius*
0 $2 $3 $4 $5 $6 $7 $8 $9 X,Y pos of 4 corners*
0 Add a 4 corners polygon primitive as box body*
4,1,4,$2,$3,$4,$5,$6,$7,$8,$9,$2,$3,0*
0 Add four circle primitives for the rounded corners*
1,1,$1+$1,$2,$3*
1,1,$1+$1,$4,$5*
1,1,$1+$1,$6,$7*
1,1,$1+$1,$8,$9*
0 Add four rect primitives between the rounded corners*
20,1,$1+$1,$2,$3,$4,$5,0*
20,1,$1+$1,$4,$5,$6,$7,0*
20,1,$1+$1,$6,$7,$8,$9,0*
20,1,$1+$1,$8,$9,$2,$3,0*%
G04 Aperture macros list end*
%ADD10R,1.700000X1.700000*%
%ADD11O,1.700000X1.700000*%
%ADD12C,1.600000*%
%ADD13O,1.600000X1.600000*%
%ADD14R,1.600000X1.600000*%
%ADD15C,2.600000*%
%ADD16C,4.400000*%
%ADD17R,2.600000X2.600000*%
%ADD18R,2.200000X2.200000*%
%ADD19O,2.200000X2.200000*%
%ADD20C,3.204000*%
%ADD21RoundRect,0.102000X-0.754000X-0.754000X0.754000X-0.754000X0.754000X0.754000X-0.754000X0.754000X0*%
%ADD22C,1.712000*%
%ADD23C,2.000000*%
%ADD24C,2.500000*%
%ADD25C,2.100000*%
%ADD26RoundRect,0.250000X-0.500000X1.000000X-0.500000X-1.000000X0.500000X-1.000000X0.500000X1.000000X0*%
%ADD27R,2.000000X1.200000*%
%ADD28O,2.000000X1.200000*%
%ADD29C,2.400000*%
%ADD30O,2.400000X2.400000*%
%ADD31RoundRect,0.150000X-0.150000X-0.200000X0.150000X-0.200000X0.150000X0.200000X-0.150000X0.200000X0*%
%ADD32O,2.600000X2.600000*%
%ADD33C,1.524000*%
%ADD34C,1.400000*%
G04 APERTURE END LIST*
D10*
%TO.C,J5*%
X115570000Y-87630000D03*
D11*
X115570000Y-90170000D03*
X115570000Y-92710000D03*
%TD*%
D12*
%TO.C,R1*%
X113030000Y-105410000D03*
D13*
X120650000Y-105410000D03*
%TD*%
D14*
%TO.C,C6*%
X167005000Y-123190000D03*
D12*
X167005000Y-120690000D03*
%TD*%
D15*
%TO.C,H3*%
X115570000Y-138430000D03*
D16*
X115570000Y-138430000D03*
%TD*%
D17*
%TO.C,J3*%
X172085000Y-129540000D03*
D15*
X177165000Y-129540000D03*
%TD*%
D12*
%TO.C,R2*%
X120650000Y-109220000D03*
D13*
X120650000Y-116840000D03*
%TD*%
D18*
%TO.C,D5*%
X166370000Y-127635000D03*
D19*
X166370000Y-130175000D03*
%TD*%
D14*
%TO.C,C2*%
X125095000Y-87630000D03*
D12*
X122595000Y-87630000D03*
%TD*%
D20*
%TO.C,U2*%
X155370000Y-93140000D03*
X155370000Y-115140000D03*
X177370000Y-93140000D03*
X177370000Y-115140000D03*
D21*
X162560000Y-92640000D03*
D22*
X165100000Y-92640000D03*
X167640000Y-92640000D03*
X170180000Y-92640000D03*
%TD*%
D12*
%TO.C,R5*%
X120650000Y-93980000D03*
D13*
X120650000Y-101600000D03*
%TD*%
D23*
%TO.C,J2*%
X154305000Y-130175000D03*
X156845000Y-130175000D03*
X159385000Y-130175000D03*
X161925000Y-130175000D03*
%TD*%
D15*
%TO.C,H1*%
X115570000Y-63430000D03*
D16*
X115570000Y-63430000D03*
%TD*%
D10*
%TO.C,J1*%
X113030000Y-115570000D03*
D11*
X113030000Y-113030000D03*
%TD*%
D10*
%TO.C,J6*%
X124460000Y-77470000D03*
D11*
X124460000Y-74930000D03*
X124460000Y-72390000D03*
X124460000Y-69850000D03*
%TD*%
D18*
%TO.C,D1*%
X166370000Y-139700000D03*
D19*
X166370000Y-134620000D03*
%TD*%
D12*
%TO.C,C4*%
X170180000Y-87630000D03*
X170180000Y-82630000D03*
%TD*%
D15*
%TO.C,H2*%
X175570000Y-63430000D03*
D16*
X175570000Y-63430000D03*
%TD*%
D10*
%TO.C,J7*%
X176530000Y-83820000D03*
D11*
X176530000Y-81280000D03*
X176530000Y-78740000D03*
X176530000Y-76200000D03*
X176530000Y-73660000D03*
%TD*%
D12*
%TO.C,C5*%
X166370000Y-143510000D03*
X171370000Y-143510000D03*
%TD*%
D24*
%TO.C,J8*%
X137160000Y-51435000D03*
X139700000Y-48895000D03*
X134620000Y-48895000D03*
X139700000Y-53975000D03*
X134620000Y-53975000D03*
%TD*%
D25*
%TO.C,REF\u002A\u002A*%
X176530000Y-68580000D03*
%TD*%
D14*
%TO.C,C3*%
X165100000Y-86360000D03*
D12*
X165100000Y-88860000D03*
%TD*%
D26*
%TO.C,U3*%
X134330000Y-82590000D03*
X136870000Y-82590000D03*
X139410000Y-82590000D03*
X146980000Y-82590000D03*
X149520000Y-82590000D03*
X152060000Y-82590000D03*
X154600000Y-82590000D03*
X157140000Y-82590000D03*
X159680000Y-82590000D03*
X162220000Y-82590000D03*
X164760000Y-82590000D03*
X164760000Y-58590000D03*
X162220000Y-58590000D03*
X159680000Y-58590000D03*
X157140000Y-58590000D03*
X154600000Y-58590000D03*
X152060000Y-58590000D03*
X149520000Y-58590000D03*
X146980000Y-58590000D03*
X139410000Y-58590000D03*
X136870000Y-58590000D03*
X134330000Y-58590000D03*
%TD*%
D10*
%TO.C,J4*%
X120640000Y-132080000D03*
D11*
X118100000Y-132080000D03*
X115560000Y-132080000D03*
X113020000Y-132080000D03*
%TD*%
D27*
%TO.C,U1*%
X124460000Y-96520000D03*
D28*
X124460000Y-99060000D03*
X124460000Y-101600000D03*
X124460000Y-104140000D03*
X124460000Y-106680000D03*
X124460000Y-109220000D03*
X124460000Y-111760000D03*
X124460000Y-114300000D03*
X124460000Y-116840000D03*
X124460000Y-119380000D03*
X124460000Y-121920000D03*
X124460000Y-124460000D03*
X124460000Y-127000000D03*
X124460000Y-129540000D03*
X124460000Y-132080000D03*
X124460000Y-134620000D03*
X124460000Y-137160000D03*
X124460000Y-139700000D03*
X124460000Y-142240000D03*
X149856320Y-142237280D03*
X149856320Y-139697280D03*
X149860000Y-137160000D03*
X149860000Y-134620000D03*
X149860000Y-132080000D03*
X149860000Y-129540000D03*
X149860000Y-127000000D03*
X149860000Y-124460000D03*
X149860000Y-121920000D03*
X149860000Y-119380000D03*
X149860000Y-116840000D03*
X149860000Y-114300000D03*
X149860000Y-111760000D03*
X149860000Y-109220000D03*
X149860000Y-106680000D03*
X149860000Y-104140000D03*
X149860000Y-101600000D03*
X149860000Y-99060000D03*
X149860000Y-96520000D03*
%TD*%
D12*
%TO.C,C7*%
X170180000Y-73660000D03*
X170180000Y-78660000D03*
%TD*%
%TO.C,C1*%
X116840000Y-111760000D03*
X116840000Y-116760000D03*
%TD*%
D15*
%TO.C,H4*%
X175570000Y-138430000D03*
D16*
X175570000Y-138430000D03*
%TD*%
D29*
%TO.C,F1*%
X177500000Y-121285000D03*
D30*
X172420000Y-121285000D03*
%TD*%
D12*
%TO.C,C8*%
X120650000Y-72390000D03*
X120650000Y-77390000D03*
%TD*%
D10*
%TO.C,J10*%
X116205000Y-120015000D03*
D11*
X118745000Y-120015000D03*
%TD*%
D23*
%TO.C,SW1*%
X113030000Y-123825000D03*
X119530000Y-123825000D03*
X113030000Y-128325000D03*
X119530000Y-128325000D03*
%TD*%
D31*
%TO.C,D3*%
X162625000Y-123190000D03*
X161225000Y-123190000D03*
%TD*%
D10*
%TO.C,J9*%
X154940000Y-86360000D03*
D11*
X154940000Y-88900000D03*
%TD*%
D17*
%TO.C,D4*%
X172720000Y-111125000D03*
D32*
X160020000Y-111125000D03*
%TD*%
D33*
%TO.C,U4*%
X162135000Y-120255000D03*
X159595000Y-120255000D03*
X157055000Y-120255000D03*
X154515000Y-120255000D03*
%TD*%
D34*
%TO.C,JP1*%
X162560000Y-96520000D03*
X162560000Y-99060000D03*
%TD*%
D12*
%TO.C,R4*%
X155575000Y-140970000D03*
D13*
X163195000Y-140970000D03*
%TD*%
D10*
%TO.C,J12*%
X137160000Y-135960000D03*
D11*
X139700000Y-135960000D03*
%TD*%
D12*
%TO.C,R7*%
X162560000Y-103505000D03*
D13*
X170180000Y-103505000D03*
%TD*%
D18*
%TO.C,D2*%
X170180000Y-116205000D03*
D19*
X162560000Y-116205000D03*
%TD*%
D34*
%TO.C,JP2*%
X165100000Y-99060000D03*
X165100000Y-96520000D03*
%TD*%
D10*
%TO.C,J11*%
X177190000Y-100340000D03*
D11*
X177190000Y-102880000D03*
X177190000Y-105420000D03*
X177190000Y-107960000D03*
%TD*%
D12*
%TO.C,R6*%
X162560000Y-106680000D03*
D13*
X170180000Y-106680000D03*
%TD*%
D12*
%TO.C,R3*%
X155575000Y-144145000D03*
D13*
X163195000Y-144145000D03*
%TD*%
G36*
X128213039Y-57169685D02*
G01*
X128258794Y-57222489D01*
X128270000Y-57274000D01*
X128270000Y-63376000D01*
X128250315Y-63443039D01*
X128197511Y-63488794D01*
X128146000Y-63500000D01*
X117599000Y-63500000D01*
X117531961Y-63480315D01*
X117486206Y-63427511D01*
X117475000Y-63376000D01*
X117475000Y-57274000D01*
X117494685Y-57206961D01*
X117547489Y-57161206D01*
X117599000Y-57150000D01*
X128146000Y-57150000D01*
X128213039Y-57169685D01*
G37*
G36*
X144723039Y-63519685D02*
G01*
X144768794Y-63572489D01*
X144780000Y-63624000D01*
X144780000Y-78616000D01*
X144760315Y-78683039D01*
X144707511Y-78728794D01*
X144656000Y-78740000D01*
X129664000Y-78740000D01*
X129596961Y-78720315D01*
X129551206Y-78667511D01*
X129540000Y-78616000D01*
X129540000Y-63624000D01*
X129559685Y-63556961D01*
X129612489Y-63511206D01*
X129664000Y-63500000D01*
X144656000Y-63500000D01*
X144723039Y-63519685D01*
G37*
M02*
