M48
; DRILL file {KiCad 8.0.5} date 2024-11-18T20:03:14+0100
; FORMAT={-:-/ absolute / metric / decimal}
; #@! TF.CreationDate,2024-11-18T20:03:14+01:00
; #@! TF.GenerationSoftware,Kicad,Pcbnew,8.0.5
; #@! TF.FileFunction,MixedPlating,1,2
FMAT,2
METRIC
; #@! TA.AperFunction,Plated,PTH,ViaDrill
T1C0.300
; #@! TA.AperFunction,Plated,PTH,ComponentDrill
T2C0.762
; #@! TA.AperFunction,Plated,PTH,ComponentDrill
T3C0.800
; #@! TA.AperFunction,Plated,PTH,ViaDrill
T4C1.000
; #@! TA.AperFunction,Plated,PTH,ComponentDrill
T5C1.000
; #@! TA.AperFunction,Plated,PTH,ComponentDrill
T6C1.100
; #@! TA.AperFunction,Plated,PTH,ComponentDrill
T7C1.200
; #@! TA.AperFunction,Plated,PTH,ComponentDrill
T8C1.300
; #@! TA.AperFunction,Plated,PTH,ComponentDrill
T9C1.700
; #@! TA.AperFunction,Plated,PTH,ComponentDrill
T10C2.200
; #@! TA.AperFunction,NonPlated,NPTH,ComponentDrill
T11C2.000
; #@! TA.AperFunction,NonPlated,NPTH,ComponentDrill
T12C2.100
%
G90
G05
T1
X130.81Y-64.77
X130.81Y-67.31
X130.81Y-69.85
X130.81Y-72.39
X130.81Y-74.93
X130.81Y-77.47
X132.715Y-109.855
X133.35Y-64.77
X133.35Y-67.31
X133.35Y-69.85
X133.35Y-72.39
X133.35Y-74.93
X133.35Y-77.47
X135.89Y-64.77
X135.89Y-67.31
X135.89Y-69.85
X135.89Y-72.39
X135.89Y-74.93
X135.89Y-77.47
X137.16Y-57.15
X137.16Y-71.12
X137.16Y-71.12
X138.43Y-64.77
X138.43Y-67.31
X138.43Y-69.85
X138.43Y-72.39
X138.43Y-74.93
X138.43Y-77.47
X140.97Y-64.77
X140.97Y-67.31
X140.97Y-69.85
X140.97Y-72.39
X140.97Y-74.93
X140.97Y-77.47
X143.51Y-64.77
X143.51Y-67.31
X143.51Y-69.85
X143.51Y-72.39
X143.51Y-74.93
X143.51Y-77.47
X144.78Y-80.01
X145.415Y-86.995
X146.05Y-74.93
X146.05Y-88.9
X147.32Y-60.96
X147.32Y-71.12
X149.86Y-60.96
X151.13Y-64.77
X152.4Y-60.96
X155.87Y-99.73
X155.97Y-105.43
X168.91Y-99.06
X172.72Y-99.06
X173.99Y-100.33
T2
X154.515Y-120.255
X157.055Y-120.255
X159.595Y-120.255
X162.135Y-120.255
T3
X113.03Y-105.41
X116.84Y-111.76
X116.84Y-116.76
X120.65Y-72.39
X120.65Y-77.39
X120.65Y-93.98
X120.65Y-101.6
X120.65Y-105.41
X120.65Y-109.22
X120.65Y-116.84
X122.595Y-87.63
X124.46Y-96.52
X124.46Y-99.06
X124.46Y-101.6
X124.46Y-104.14
X124.46Y-106.68
X124.46Y-109.22
X124.46Y-111.76
X124.46Y-114.3
X124.46Y-116.84
X124.46Y-119.38
X124.46Y-121.92
X124.46Y-124.46
X124.46Y-127.0
X124.46Y-129.54
X124.46Y-132.08
X124.46Y-134.62
X124.46Y-137.16
X124.46Y-139.7
X124.46Y-142.24
X125.095Y-87.63
X149.856Y-139.697
X149.856Y-142.237
X149.86Y-96.52
X149.86Y-99.06
X149.86Y-101.6
X149.86Y-104.14
X149.86Y-106.68
X149.86Y-109.22
X149.86Y-111.76
X149.86Y-114.3
X149.86Y-116.84
X149.86Y-119.38
X149.86Y-121.92
X149.86Y-124.46
X149.86Y-127.0
X149.86Y-129.54
X149.86Y-132.08
X149.86Y-134.62
X149.86Y-137.16
X155.575Y-140.97
X155.575Y-144.145
X162.56Y-96.52
X162.56Y-99.06
X162.56Y-103.505
X162.56Y-106.68
X163.195Y-140.97
X163.195Y-144.145
X165.1Y-86.36
X165.1Y-88.86
X165.1Y-96.52
X165.1Y-99.06
X166.37Y-143.51
X167.005Y-120.69
X167.005Y-123.19
X170.18Y-73.66
X170.18Y-78.66
X170.18Y-82.63
X170.18Y-87.63
X170.18Y-103.505
X170.18Y-106.68
X171.37Y-143.51
T4
X137.16Y-71.12
T5
X113.02Y-132.08
X113.03Y-113.03
X113.03Y-115.57
X115.56Y-132.08
X115.57Y-87.63
X115.57Y-90.17
X115.57Y-92.71
X116.205Y-120.015
X118.1Y-132.08
X118.745Y-120.015
X120.64Y-132.08
X124.46Y-69.85
X124.46Y-72.39
X124.46Y-74.93
X124.46Y-77.47
X137.16Y-135.96
X139.7Y-135.96
X154.305Y-130.175
X154.94Y-86.36
X154.94Y-88.9
X156.845Y-130.175
X159.385Y-130.175
X161.925Y-130.175
X162.56Y-92.64
X165.1Y-92.64
X167.64Y-92.64
X170.18Y-92.64
X176.53Y-73.66
X176.53Y-76.2
X176.53Y-78.74
X176.53Y-81.28
X176.53Y-83.82
X177.19Y-100.34
X177.19Y-102.88
X177.19Y-105.42
X177.19Y-107.96
T6
X113.03Y-123.825
X113.03Y-128.325
X119.53Y-123.825
X119.53Y-128.325
X162.56Y-116.205
X166.37Y-127.635
X166.37Y-130.175
X166.37Y-134.62
X166.37Y-139.7
X170.18Y-116.205
T7
X172.42Y-121.285
X177.5Y-121.285
T8
X137.16Y-51.435
X160.02Y-111.125
X172.085Y-129.54
X172.72Y-111.125
X177.165Y-129.54
T9
X134.62Y-48.895
X134.62Y-53.975
X139.7Y-48.895
X139.7Y-53.975
T10
X115.57Y-63.43
X115.57Y-138.43
X175.57Y-63.43
X175.57Y-138.43
T11
X155.37Y-93.14
X155.37Y-115.14
X177.37Y-93.14
X177.37Y-115.14
T12
X176.53Y-68.58
M30
